# xmcd
#
# Track frame offsets: 
#        150
#        26217
#        46302
#        73490
#        89517
#        113472
#        130845
#        145202
#        166745
#        188050
#        220695
#
# Disc length: 3247 seconds
#
# Revision: 5
# Processed by: cddbd v1.5.2PL0 Copyright (c) Steve Scherf et al.
# Submitted via: ExactAudioCopyFreeDBPlugin 1.0
#
DISCID=9b0cad0b
DTITLE=The Robert Cray Band - Sweet Potato Pie
DYEAR=1997
DGENRE=Blues
TTITLE0=Nothing Against You
TTITLE1=Do That For Me
TTITLE2=Back Home
TTITLE3=Save It
TTITLE4=The One In The Middle
TTITLE5=Little Birds
TTITLE6=Trick Or Treat
TTITLE7=Simple Things
TTITLE8=Jealous Minds
TTITLE9=Not Bad For Love
TTITLE10=I Can't Quit
EXTD=YEAR: 1997
EXTT0=
EXTT1=
EXTT2=
EXTT3=
EXTT4=
EXTT5=
EXTT6=
EXTT7=
EXTT8=
EXTT9=
EXTT10=
PLAYORDER=
